<?xml version="1.0" encoding="UTF-8" standalone="no"?>
<!-- Created with Inkscape (http://www.inkscape.org/) -->

<svg
   xmlns:dc="http://purl.org/dc/elements/1.1/"
   xmlns:cc="http://creativecommons.org/ns#"
   xmlns:rdf="http://www.w3.org/1999/02/22-rdf-syntax-ns#"
   xmlns:svg="http://www.w3.org/2000/svg"
   xmlns="http://www.w3.org/2000/svg"
   xmlns:sodipodi="http://sodipodi.sourceforge.net/DTD/sodipodi-0.dtd"
   xmlns:inkscape="http://www.inkscape.org/namespaces/inkscape"
   version="1.1"
   id="svg2"
   xml:space="preserve"
   width="1024"
   height="1024"
   viewBox="0 0 1023.9999 1024"
   sodipodi:docname="tomate.svg"
   inkscape:version="0.92.3 (2405546, 2018-03-11)"><metadata
     id="metadata8"><rdf:RDF><cc:Work
         rdf:about=""><dc:format>image/svg+xml</dc:format><dc:type
           rdf:resource="http://purl.org/dc/dcmitype/StillImage" /><dc:title /></cc:Work></rdf:RDF></metadata><defs
     id="defs6"><clipPath
       clipPathUnits="userSpaceOnUse"
       id="clipPath18"><path
         d="M 0,800 H 800 V 0 H 0 Z"
         id="path16"
         inkscape:connector-curvature="0" /></clipPath><clipPath
       clipPathUnits="userSpaceOnUse"
       id="clipPath154"><path
         d="M 189.006,669.262 H 610.998 V 216.655 H 189.006 Z"
         id="path152"
         inkscape:connector-curvature="0" /></clipPath><clipPath
       clipPathUnits="userSpaceOnUse"
       id="clipPath306"><path
         d="m 390.18,163.738 c -96.018,-0.014 -176.284,-5.525 -196.351,-12.894 v 0 c -3.16,-1.16 -4.827,-2.367 -4.827,-3.606 v 0 c 0,-1.238 1.667,-2.445 4.827,-3.605 v 0 c 20.067,-7.369 100.333,-12.879 196.352,-12.893 v 0 h 0.357 c 96.204,0 176.664,5.518 196.725,12.899 v 0 c 3.151,1.157 4.811,2.363 4.811,3.599 v 0 c 0,1.237 -1.66,2.442 -4.811,3.6 v 0 c -20.061,7.381 -100.521,12.9 -196.725,12.9 v 0 z"
         id="path304"
         inkscape:connector-curvature="0" /></clipPath></defs><sodipodi:namedview
     pagecolor="#ffffff"
     bordercolor="#666666"
     borderopacity="1"
     objecttolerance="10"
     gridtolerance="10"
     guidetolerance="10"
     inkscape:pageopacity="0"
     inkscape:pageshadow="2"
     inkscape:window-width="1360"
     inkscape:window-height="743"
     id="namedview4"
     showgrid="false"
     showguides="false"
     inkscape:zoom="0.48242188"
     inkscape:cx="223.87045"
     inkscape:cy="512"
     inkscape:window-x="0"
     inkscape:window-y="0"
     inkscape:window-maximized="1"
     inkscape:current-layer="g10" /><g
     id="g10"
     inkscape:groupmode="layer"
     inkscape:label="03"
     transform="matrix(1.3333333,0,0,-1.3333333,-61.081074,1030.3117)"><g
       id="g12"
       transform="matrix(0.91145372,0,0,0.91145372,56.216673,24.654044)"><g
         id="g14"
         clip-path="url(#clipPath18)"
         transform="translate(-14.381834,13.183348)"><g
           id="g148"
           transform="matrix(1.7255189,0,0,1.7255189,-265.94113,-382.29191)"><g
             id="g150" /><g
             id="g298"><g
               clip-path="url(#clipPath154)"
               id="g296"><g
                 transform="translate(592.0781,501.1533)"
                 id="g158"><path
                   d="m 0,0 18.92,-93.22 -56.219,37.183 z"
                   style="fill:#ef3e2f;fill-opacity:1;fill-rule:nonzero;stroke:none"
                   id="path156"
                   inkscape:connector-curvature="0" /></g><g
                 transform="translate(610.998,407.9336)"
                 id="g162"><path
                   d="m 0,0 -24.479,-86.755 -40.639,25.86 8.899,98.078 z"
                   style="fill:#ea2e00;fill-opacity:1;fill-rule:nonzero;stroke:none"
                   id="path160"
                   inkscape:connector-curvature="0" /></g><g
                 transform="translate(592.0781,501.1533)"
                 id="g166"><path
                   d="m 0,0 -37.299,-56.037 -135.838,35.016 110.779,58.727 z"
                   style="fill:#f8441c;fill-opacity:1;fill-rule:nonzero;stroke:none"
                   id="path164"
                   inkscape:connector-curvature="0" /></g><g
                 transform="translate(589.8584,596.5215)"
                 id="g170"><path
                   d="m 0,0 -53.459,10.22 32.3,8.091 z"
                   style="fill:#84b34e;fill-opacity:1;fill-rule:nonzero;stroke:none"
                   id="path168"
                   inkscape:connector-curvature="0" /></g><g
                 transform="translate(586.5186,321.1787)"
                 id="g174"><path
                   d="m 0,0 -37.859,-52.262 -2.78,-2.091 V 25.86 Z"
                   style="fill:#d50601;fill-opacity:1;fill-rule:nonzero;stroke:none"
                   id="path172"
                   inkscape:connector-curvature="0" /></g><g
                 transform="translate(568.6992,614.8325)"
                 id="g178"><path
                   d="M 0,0 -32.3,-8.091 -55.659,5.632 Z"
                   style="fill:#62c700;fill-opacity:1;fill-rule:nonzero;stroke:none"
                   id="path176"
                   inkscape:connector-curvature="0" /></g><g
                 transform="translate(554.7793,445.1167)"
                 id="g182"><path
                   d="M 0,0 -8.899,-98.078 -135.838,35.016 Z"
                   style="fill:#f6351d;fill-opacity:1;fill-rule:nonzero;stroke:none"
                   id="path180"
                   inkscape:connector-curvature="0" /></g><g
                 transform="translate(545.8799,347.0391)"
                 id="g186"><path
                   d="m 0,0 v -80.213 l -49.56,-37.241 -2.299,-0.193 -13.84,69.702 z"
                   style="fill:#df1809;fill-opacity:1;fill-rule:nonzero;stroke:none"
                   id="path184"
                   inkscape:connector-curvature="0" /></g><g
                 transform="translate(418.9414,480.1323)"
                 id="g190"><path
                   d="m 0,0 126.938,-133.093 -65.699,-47.946 -145.857,14.537 z"
                   style="fill:#f13215;fill-opacity:1;fill-rule:nonzero;stroke:none"
                   id="path188"
                   inkscape:connector-curvature="0" /></g><g
                 transform="translate(536.3994,606.7412)"
                 id="g194"><path
                   d="m 0,0 -64.398,-36.39 -0.68,0.329 41.699,49.785 h 0.02 z"
                   style="fill:#699330;fill-opacity:1;fill-rule:nonzero;stroke:none"
                   id="path192"
                   inkscape:connector-curvature="0" /></g><g
                 transform="translate(529.7197,538.8589)"
                 id="g198"><path
                   d="m 0,0 -110.778,-58.727 -27.599,36.042 32.599,35.615 z"
                   style="fill:#ff4c10;fill-opacity:1;fill-rule:nonzero;stroke:none"
                   id="path196"
                   inkscape:connector-curvature="0" /></g><g
                 transform="translate(529.7197,538.8589)"
                 id="g202"><path
                   d="m 0,0 -105.778,12.93 15.599,35.035 6.821,-3.465 24.96,-12.678 -1.161,-1.374 1.84,1.045 35.459,-18.021 z"
                   style="fill:#ff7647;fill-opacity:1;fill-rule:nonzero;stroke:none"
                   id="path200"
                   inkscape:connector-curvature="0" /></g><g
                 transform="translate(513.0205,620.4844)"
                 id="g206"><path
                   d="m 0,0 v -0.02 l -41.699,-49.784 -24.96,12.679 20.46,29.324 43.419,8.072 z"
                   style="fill:#96c23e;fill-opacity:1;fill-rule:nonzero;stroke:none"
                   id="path204"
                   inkscape:connector-curvature="0" /></g><g
                 transform="translate(480.1807,299.0937)"
                 id="g210"><path
                   d="m 0,0 13.84,-69.702 -148.017,-12.736 -11.68,96.974 z"
                   style="fill:#df1306;fill-opacity:1;fill-rule:nonzero;stroke:none"
                   id="path208"
                   inkscape:connector-curvature="0" /></g><g
                 transform="translate(446.3613,620.7554)"
                 id="g214"><path
                   d="m 0,0 v -37.396 l -6.82,3.464 h -38.579 l 9.48,26.964 z"
                   style="fill:#7dae50;fill-opacity:1;fill-rule:nonzero;stroke:none"
                   id="path212"
                   inkscape:connector-curvature="0" /></g><g
                 transform="translate(427.8418,663.3198)"
                 id="g218"><path
                   d="m 0,0 18.52,-42.564 -35.919,-6.969 2.679,7.665 z"
                   style="fill:#94dc5f;fill-opacity:1;fill-rule:nonzero;stroke:none"
                   id="path216"
                   inkscape:connector-curvature="0" /></g><g
                 transform="translate(400.9624,586.8237)"
                 id="g222"><path
                   d="M 0,0 H 38.579 L 22.979,-35.035 -26.56,0 Z"
                   style="fill:#418600;fill-opacity:1;fill-rule:nonzero;stroke:none"
                   id="path220"
                   inkscape:connector-curvature="0" /></g><g
                 transform="translate(423.9414,551.7891)"
                 id="g226"><path
                   d="m 0,0 -32.599,-35.615 -44.619,58.281 3.74,1.045 23.939,11.324 z"
                   style="fill:#948524;fill-opacity:1;fill-rule:nonzero;stroke:none"
                   id="path224"
                   inkscape:connector-curvature="0" /></g><g
                 transform="translate(391.3423,516.1738)"
                 id="g230"><path
                   d="M 0,0 27.599,-36.042 -55.359,-41.171 -1.9,-2.091 Z"
                   style="fill:#f8441c;fill-opacity:1;fill-rule:nonzero;stroke:none"
                   id="path228"
                   inkscape:connector-curvature="0" /></g><g
                 transform="translate(418.9414,480.1323)"
                 id="g234"><path
                   d="m 0,0 -84.618,-166.502 -104.118,42.564 11.14,105.085 94.638,13.724 z"
                   style="fill:#ff4c11;fill-opacity:1;fill-rule:nonzero;stroke:none"
                   id="path232"
                   inkscape:connector-curvature="0" /></g><g
                 transform="translate(413.1221,621.4521)"
                 id="g238"><path
                   d="m 0,0 -2.68,-7.665 -9.48,-26.963 h -26.559 l 2.4,12.194 4.279,21.737 z"
                   style="fill:#5d8d21;fill-opacity:1;fill-rule:nonzero;stroke:none"
                   id="path236"
                   inkscape:connector-curvature="0" /></g><g
                 transform="translate(374.4028,669.2622)"
                 id="g242"><path
                   d="M 0,0 38.719,-47.81 -5.02,-10.782 Z"
                   style="fill:#7bc343;fill-opacity:1;fill-rule:nonzero;stroke:none"
                   id="path240"
                   inkscape:connector-curvature="0" /></g><g
                 transform="translate(413.1221,621.4521)"
                 id="g246"><path
                   d="M 0,0 -32.04,-0.697 -43.739,37.028 Z"
                   style="fill:#72b03b;fill-opacity:1;fill-rule:nonzero;stroke:none"
                   id="path244"
                   inkscape:connector-curvature="0" /></g><g
                 transform="translate(346.7231,574.4551)"
                 id="g250"><path
                   d="m 0,0 44.619,-58.281 -1.9,-2.091 -53.459,-39.08 -66.398,76.786 2.38,1.626 67.618,19.027 z"
                   style="fill:#ff5f10;fill-opacity:1;fill-rule:nonzero;stroke:none"
                   id="path248"
                   inkscape:connector-curvature="0" /></g><g
                 transform="translate(359.9829,643.4023)"
                 id="g254"><path
                   d="m 0,0 16.82,-44.384 -2.4,-12.195 -23.94,-11.323 -3.74,-1.045 -7.139,-2.013 z"
                   style="fill:#79b446;fill-opacity:1;fill-rule:nonzero;stroke:none"
                   id="path252"
                   inkscape:connector-curvature="0" /></g><g
                 transform="translate(374.4028,669.2622)"
                 id="g258"><path
                   d="M 0,0 -5.02,-10.782 -40.079,0 Z"
                   style="fill:#7dca4a;fill-opacity:1;fill-rule:nonzero;stroke:none"
                   id="path256"
                   inkscape:connector-curvature="0" /></g><g
                 transform="translate(359.9829,643.4023)"
                 id="g262"><path
                   d="m 0,0 -20.399,-70.96 -29.6,63.701 z"
                   style="fill:#689929;fill-opacity:1;fill-rule:nonzero;stroke:none"
                   id="path260"
                   inkscape:connector-curvature="0" /></g><g
                 transform="translate(359.9829,643.4023)"
                 id="g266"><path
                   d="m 0,0 -49.999,-7.259 -60.999,-28.55 43.499,55.726 z"
                   style="fill:#85d550;fill-opacity:1;fill-rule:nonzero;stroke:none"
                   id="path264"
                   inkscape:connector-curvature="0" /></g><g
                 transform="translate(334.3237,313.6299)"
                 id="g270"><path
                   d="m 0,0 11.68,-96.975 -67.919,20.15 -1.56,1.123 z"
                   style="fill:#ff3613;fill-opacity:1;fill-rule:nonzero;stroke:none"
                   id="path268"
                   inkscape:connector-curvature="0" /></g><g
                 transform="translate(269.585,551.7891)"
                 id="g274"><path
                   d="M 0,0 66.398,-76.786 -28.24,-90.51 -0.28,-0.193 Z"
                   style="fill:#ff6115;fill-opacity:1;fill-rule:nonzero;stroke:none"
                   id="path272"
                   inkscape:connector-curvature="0" /></g><g
                 transform="translate(334.3237,313.6299)"
                 id="g278"><path
                   d="m 0,0 -57.799,-75.702 -62.799,45.003 z"
                   style="fill:#ff3613;fill-opacity:1;fill-rule:nonzero;stroke:none"
                   id="path276"
                   inkscape:connector-curvature="0" /></g><g
                 transform="translate(334.3237,313.6299)"
                 id="g282"><path
                   d="m 0,0 -120.598,-30.699 -24.719,66.799 41.199,6.464 z"
                   style="fill:#ff4c10;fill-opacity:1;fill-rule:nonzero;stroke:none"
                   id="path280"
                   inkscape:connector-curvature="0" /></g><g
                 transform="translate(269.3047,551.5957)"
                 id="g286"><path
                   d="m 0,0 -27.959,-90.316 -25.4,53.132 0.34,1.278 z"
                   style="fill:#ff945a;fill-opacity:1;fill-rule:nonzero;stroke:none"
                   id="path284"
                   inkscape:connector-curvature="0" /></g><g
                 transform="translate(215.9458,514.4121)"
                 id="g290"><path
                   d="M 0,0 25.399,-53.133 -21.76,-78.954 Z"
                   style="fill:#ff7931;fill-opacity:1;fill-rule:nonzero;stroke:none"
                   id="path288"
                   inkscape:connector-curvature="0" /></g><g
                 transform="translate(241.3452,461.2793)"
                 id="g294"><path
                   d="m 0,0 -11.14,-105.085 -41.199,-6.465 5.02,85.148 0.16,0.581 z"
                   style="fill:#ff6115;fill-opacity:1;fill-rule:nonzero;stroke:none"
                   id="path292"
                   inkscape:connector-curvature="0" /></g></g></g></g></g></g></g></svg>