<?xml version="1.0" encoding="UTF-8" standalone="no"?>
<!-- Generator: Adobe Illustrator 18.0.0, SVG Export Plug-In . SVG Version: 6.00 Build 0)  -->

<svg
   xmlns:dc="http://purl.org/dc/elements/1.1/"
   xmlns:cc="http://creativecommons.org/ns#"
   xmlns:rdf="http://www.w3.org/1999/02/22-rdf-syntax-ns#"
   xmlns:svg="http://www.w3.org/2000/svg"
   xmlns="http://www.w3.org/2000/svg"
   xmlns:sodipodi="http://sodipodi.sourceforge.net/DTD/sodipodi-0.dtd"
   xmlns:inkscape="http://www.inkscape.org/namespaces/inkscape"
   version="1.1"
   id="Capa_1"
   x="0px"
   y="0px"
   viewBox="0 0 53.679 53.679"
   style="enable-background:new 0 0 53.679 53.679;"
   xml:space="preserve"
   sodipodi:docname="tomate-light.svg"
   inkscape:version="0.92.3 (2405546, 2018-03-11)"><metadata
   id="metadata45"><rdf:RDF><cc:Work
       rdf:about=""><dc:format>image/svg+xml</dc:format><dc:type
         rdf:resource="http://purl.org/dc/dcmitype/StillImage" /><dc:title></dc:title></cc:Work></rdf:RDF></metadata><defs
   id="defs43" /><sodipodi:namedview
   pagecolor="#ffffff"
   bordercolor="#666666"
   borderopacity="1"
   objecttolerance="10"
   gridtolerance="10"
   guidetolerance="10"
   inkscape:pageopacity="0"
   inkscape:pageshadow="2"
   inkscape:window-width="1366"
   inkscape:window-height="743"
   id="namedview41"
   showgrid="false"
   inkscape:zoom="6.2175971"
   inkscape:cx="-20.134458"
   inkscape:cy="26.900097"
   inkscape:window-x="0"
   inkscape:window-y="768"
   inkscape:window-maximized="1"
   inkscape:current-layer="g8" />
<g
   id="g8"
   style="fill:#808080"
   transform="matrix(0.82621628,0,0,0.82621628,4.6643551,4.6641813)">
	<path
   d="M 42.819,10.169 42.815,10.166 C 42.798,10.154 42.777,10.148 42.76,10.137 42.804,9.536 42.539,8.956 42.009,8.617 39.435,6.967 34.455,4.558 29.522,6.534 V 2.786 C 29.522,1.25 28.409,0 27.041,0 H 24.818 C 23.449,0 22.336,1.25 22.336,2.786 V 6.891 C 20.112,6.495 15.267,6.103 10.611,8.884 c -0.706,0.42 -0.996,1.255 -0.705,2.028 0.029,0.079 0.083,0.138 0.122,0.209 -0.102,0.027 -0.208,0.05 -0.309,0.077 -0.236,0.063 -0.462,0.18 -0.658,0.341 -5.508,4.583 -8.667,11.117 -8.667,17.925 0,13.352 11.863,24.214 26.446,24.214 14.583,0 26.446,-10.862 26.446,-24.214 0,-7.638 -3.815,-14.671 -10.467,-19.295 z M 22.332,8.928 c 0.491,0.103 0.997,-0.021 1.387,-0.34 0.393,-0.319 0.617,-0.794 0.617,-1.301 V 2.786 C 24.336,2.344 24.596,2 24.818,2 h 2.223 c 0.223,0 0.481,0.344 0.481,0.786 v 4.249 c 0,0.57 0.286,1.095 0.766,1.403 0.481,0.31 1.08,0.353 1.602,0.113 3.655,-1.671 7.521,-0.249 9.994,1.124 -2.332,-0.03 -4.23,0.155 -5.684,0.513 -0.658,0.161 -1.147,0.697 -1.246,1.366 -0.101,0.685 0.222,1.354 0.821,1.708 1.454,0.855 2.406,1.815 3.038,2.758 0.455,0.679 0.748,1.349 0.92,1.964 -2.191,-1.794 -4.648,-2.453 -6.332,-2.689 -0.561,-0.079 -1.037,-0.11 -1.388,-0.122 -0.46,-0.015 -0.896,0.154 -1.226,0.478 -0.327,0.321 -0.511,0.77 -0.504,1.231 0.08,5.136 -1.695,8.581 -2.727,10.14 -0.985,-2.088 -1.289,-6.58 -1.234,-10.271 0.014,-0.852 -0.621,-1.577 -1.479,-1.688 -0.257,-0.033 -0.517,-0.049 -0.778,-0.049 -0.05,0 -0.101,0.009 -0.15,0.011 -0.136,0.003 -0.273,0.018 -0.41,0.029 -0.206,0.017 -0.412,0.037 -0.619,0.072 -0.134,0.022 -0.268,0.051 -0.402,0.08 -0.213,0.046 -0.425,0.098 -0.637,0.159 -0.129,0.037 -0.257,0.077 -0.385,0.12 -0.219,0.073 -0.436,0.152 -0.653,0.239 -0.122,0.049 -0.243,0.097 -0.364,0.15 -0.222,0.097 -0.442,0.2 -0.66,0.309 -0.114,0.056 -0.228,0.111 -0.341,0.17 -0.225,0.118 -0.445,0.243 -0.665,0.371 -0.103,0.06 -0.206,0.116 -0.308,0.178 -0.239,0.145 -0.471,0.295 -0.701,0.447 -0.075,0.05 -0.153,0.097 -0.227,0.147 -0.303,0.205 -0.598,0.414 -0.883,0.625 0.358,-0.649 0.74,-1.227 1.129,-1.747 0.021,-0.028 0.041,-0.06 0.061,-0.087 0.409,-0.539 0.824,-1.01 1.228,-1.419 0.002,-0.002 0.004,-0.004 0.006,-0.006 0.533,-0.54 1.038,-0.961 1.483,-1.295 0.064,-0.048 0.132,-0.103 0.193,-0.147 0.036,-0.026 0.065,-0.044 0.1,-0.069 0.123,-0.087 0.245,-0.172 0.353,-0.243 0.524,-0.343 0.812,-0.943 0.747,-1.568 -0.063,-0.626 -0.466,-1.158 -1.051,-1.389 -0.051,-0.02 -0.114,-0.03 -0.167,-0.049 C 18.522,10.024 18.287,9.955 18.039,9.894 17.887,9.856 17.733,9.82 17.571,9.79 17.548,9.786 17.528,9.779 17.504,9.775 17.489,9.772 17.475,9.776 17.46,9.774 c -1.141,-0.2 -2.487,-0.23 -4.056,-0.062 3.772,-1.564 7.401,-1.1 8.928,-0.784 z m 4.507,42.751 c -13.479,0 -24.446,-9.965 -24.446,-22.214 0,-6.195 2.881,-12.153 7.899,-16.349 2.157,-0.574 4.478,-1.034 6.829,-1.368 0.079,0.014 0.166,0.022 0.242,0.038 0.063,0.013 0.128,0.025 0.188,0.039 -0.09,0.065 -0.19,0.147 -0.285,0.219 -0.104,0.08 -0.203,0.152 -0.312,0.24 -0.095,0.077 -0.196,0.169 -0.294,0.252 -0.121,0.103 -0.238,0.198 -0.363,0.311 -0.118,0.107 -0.24,0.231 -0.361,0.348 -0.111,0.107 -0.219,0.205 -0.332,0.32 -0.202,0.206 -0.406,0.433 -0.61,0.666 -0.034,0.039 -0.067,0.071 -0.101,0.11 -0.958,1.114 -1.92,2.535 -2.699,4.312 -0.313,0.717 -0.104,1.517 0.521,1.989 0.624,0.472 1.481,0.454 2.084,-0.042 1.709,-1.407 4.902,-3.703 7.521,-3.53 -0.026,2.813 0.123,8.915 1.795,11.519 0.3,0.467 0.811,0.756 1.363,0.772 0.017,0 0.033,0 0.05,0 0.534,0 1.037,-0.255 1.354,-0.69 1.037,-1.425 3.413,-5.356 3.405,-11.434 1.461,0.096 4.432,0.587 6.794,2.894 0.516,0.503 1.266,0.622 1.907,0.301 0.648,-0.322 1.009,-0.995 0.918,-1.716 -0.058,-0.455 -0.161,-0.955 -0.324,-1.479 -0.007,-0.023 -0.011,-0.044 -0.018,-0.068 -0.154,-0.483 -0.374,-0.988 -0.652,-1.499 -0.038,-0.071 -0.066,-0.14 -0.107,-0.211 -0.125,-0.217 -0.278,-0.435 -0.43,-0.652 -0.053,-0.076 -0.094,-0.152 -0.15,-0.228 -0.13,-0.174 -0.288,-0.347 -0.437,-0.52 -0.102,-0.119 -0.189,-0.239 -0.3,-0.357 -0.13,-0.138 -0.29,-0.273 -0.434,-0.409 -0.158,-0.15 -0.302,-0.302 -0.477,-0.45 -0.151,-0.127 -0.334,-0.249 -0.499,-0.374 -0.199,-0.151 -0.383,-0.305 -0.603,-0.452 0.5,-0.086 1.124,-0.164 1.884,-0.219 0.03,-0.002 0.061,-0.004 0.092,-0.006 0.15,-0.01 0.307,-0.019 0.467,-0.027 0.086,-0.004 0.173,-0.008 0.262,-0.012 0.124,-0.005 0.249,-0.01 0.379,-0.014 0.158,-0.005 0.321,-0.008 0.488,-0.01 0.077,-10e-4 0.153,-0.003 0.232,-0.004 0.305,-0.003 0.628,-0.001 0.963,0.004 l 0.359,0.032 c 0.296,0.04 0.593,0.075 0.89,0.111 l 0.248,0.029 c 6.068,4.245 9.547,10.66 9.547,17.611 0,12.252 -10.967,22.217 -24.447,22.217 z"
   id="path2"
   style="fill:none;fill-opacity:1;stroke:none"
   inkscape:connector-curvature="0" />
	<path
   d="M 6.452,30.709 C 6.372,30.163 5.873,29.778 5.317,29.865 4.771,29.945 4.393,30.453 4.473,31 c 0.219,1.488 0.709,2.884 1.457,4.146 0.187,0.315 0.52,0.49 0.861,0.49 0.173,0 0.349,-0.045 0.509,-0.14 C 7.776,35.215 7.932,34.6 7.651,34.126 7.044,33.104 6.629,31.922 6.452,30.709 Z"
   id="path4"
   style="fill:#ffffff;fill-opacity:1"
   inkscape:connector-curvature="0" />
	<path
   d="m 5.518,27.676 c 0.023,0.002 0.047,0.003 0.07,0.003 0.521,0 0.96,-0.403 0.996,-0.931 0.08,-1.139 0.313,-2.244 0.694,-3.285 C 7.467,22.943 7.201,22.369 6.682,22.18 6.16,21.992 5.588,22.257 5.399,22.776 4.955,23.994 4.682,25.283 4.588,26.61 c -0.037,0.55 0.378,1.028 0.93,1.066 z"
   id="path6"
   style="fill:#ffffff;fill-opacity:1"
   inkscape:connector-curvature="0" />
<path
   style="fill:#555555;fill-opacity:1;stroke:#dbdee0;stroke-width:0.16108711;stroke-miterlimit:4;stroke-dasharray:none;stroke-opacity:1"
   d="M 24.641682,47.232768 C 19.661637,46.601565 15.607345,44.766566 12.315119,41.653692 7.4103304,37.016103 5.5706158,30.577545 7.3730611,24.357684 8.1901482,21.538087 9.5483509,19.218656 11.716501,16.940301 l 1.330013,-1.397615 1.575696,-0.353228 c 1.959106,-0.439178 4.267362,-0.842629 4.34972,-0.760271 0.03404,0.03404 -0.240605,0.304372 -0.610319,0.600743 -1.593304,1.277228 -3.691627,4.490674 -3.691627,5.653487 0,0.710857 0.55356,1.238773 1.297037,1.236951 0.418331,-0.001 0.884632,-0.2395 1.91964,-0.98174 0.751898,-0.539213 1.709654,-1.154397 2.128346,-1.367074 0.697308,-0.354203 2.345287,-0.866509 2.787374,-0.866509 0.122757,0 0.220106,0.682244 0.292605,2.050631 0.218713,4.128093 0.794917,6.803756 1.649145,7.657985 0.591943,0.591943 1.455365,0.584103 2.023956,-0.01838 1.347672,-1.427995 2.592904,-4.869525 2.845609,-7.864598 0.07009,-0.830693 0.168734,-1.55165 0.21921,-1.602126 0.152097,-0.152097 2.593613,0.526578 3.443285,0.957139 0.436321,0.221101 1.166867,0.697281 1.623436,1.058178 1.00921,0.797734 1.75626,0.879964 2.374821,0.261403 0.480099,-0.480097 0.500476,-1.006117 0.09007,-2.324772 -0.406592,-1.306385 -1.141006,-2.413816 -2.29079,-3.454311 l -0.948492,-0.858335 0.749024,-0.102665 c 1.351814,-0.185287 3.739664,-0.116098 4.287847,0.124242 0.284648,0.124798 1.011466,0.661133 1.615148,1.191854 2.934603,2.579924 4.785902,5.567647 5.754842,9.287471 0.537881,2.064965 0.540434,5.784897 0.0054,7.837822 -1.171684,4.495563 -3.827526,8.203962 -7.747209,10.817567 -2.375438,1.583917 -4.783264,2.574002 -7.800326,3.207449 -1.245844,0.261572 -5.185899,0.448492 -6.348254,0.301166 z M 10.837516,33.878915 c 0.391989,-0.354745 0.371074,-0.680025 -0.104617,-1.627104 -0.219307,-0.436632 -0.478844,-1.167384 -0.576748,-1.623895 -0.0979,-0.45651 -0.2855165,-0.937528 -0.4169167,-1.068928 -0.2879471,-0.287947 -0.8829526,-0.311726 -1.1487694,-0.04591 -0.4258063,0.425806 -0.1235059,2.058506 0.6716923,3.627753 0.5275459,1.041063 0.9973498,1.261174 1.5753588,0.738084 z M 9.9162658,27.193452 c 0.1377042,-0.1966 0.2503712,-0.541837 0.2503712,-0.767194 0,-0.225356 0.145786,-0.935827 0.323969,-1.578823 0.363122,-1.310367 0.272366,-1.724811 -0.41551,-1.897456 -0.5905947,-0.14823 -0.9600464,0.276851 -1.2461776,1.433818 -0.4596267,1.858495 -0.5012399,2.50175 -0.1844852,2.85176 0.3792359,0.419051 0.9623476,0.399747 1.2718326,-0.0421 z"
   id="path4539"
   inkscape:connector-curvature="0"
   transform="matrix(1.2103368,0,0,1.2103368,-5.6454408,-5.6452304)" /><path
   style="fill:#555555;fill-opacity:1;stroke:#dbdee0;stroke-width:0.16108711;stroke-miterlimit:4;stroke-dasharray:none;stroke-opacity:1"
   d="m 25.376074,25.580692 c -0.361151,-1.66746 -0.570715,-3.792398 -0.572239,-5.80239 -0.0013,-1.709424 -0.0099,-1.749951 -0.471449,-2.211466 -0.417702,-0.417701 -0.580446,-0.470129 -1.459355,-0.470129 -1.27173,0 -3.086507,0.603089 -4.624476,1.536813 -0.641335,0.389363 -1.166063,0.668251 -1.166063,0.61975 0,-0.148865 0.91947,-1.399806 1.480018,-2.013568 0.291722,-0.319416 0.954166,-0.9318 1.472096,-1.360852 1.163435,-0.963786 1.33786,-1.353866 0.951759,-2.128493 -0.368866,-0.74005 -1.075148,-0.991867 -3.180121,-1.133836 l -1.608339,-0.108474 1.206254,-0.311848 c 1.316465,-0.340342 3.704052,-0.424194 5.425078,-0.19053 0.978999,0.132918 1.013363,0.124845 1.487713,-0.349505 l 0.485566,-0.485566 V 8.9387196 c 0,-1.5214606 0.06143,-2.2933119 0.193,-2.4248794 0.250586,-0.2505856 1.936755,-0.2505856 2.18734,0 0.130111,0.1301101 0.193001,0.8672783 0.193001,2.2622471 0,1.174694 0.07513,2.2096217 0.17378,2.3939567 0.09558,0.178591 0.409493,0.423198 0.697588,0.543572 0.470407,0.196548 0.650079,0.178763 1.762354,-0.17445 2.009761,-0.638218 4.174773,-0.433967 6.526962,0.615765 l 0.877742,0.391718 -1.521078,0.110019 c -3.093315,0.223738 -4.019629,0.625506 -4.008885,1.738761 0.0062,0.643601 0.18302,0.883628 1.124403,1.526425 0.937697,0.640281 1.972098,1.766299 2.40862,2.621954 0.189372,0.3712 0.321171,0.696851 0.292885,0.723668 -0.02829,0.02682 -0.520761,-0.235848 -1.094391,-0.583701 -1.809736,-1.097438 -4.687184,-1.769165 -5.739321,-1.339819 -0.696151,0.284079 -0.79749,0.550341 -0.915922,2.406509 -0.05644,0.884586 -0.248669,2.21582 -0.427174,2.958297 -0.341934,1.422247 -1.471988,4.037975 -1.744498,4.037975 -0.08816,0 -0.273944,-0.52472 -0.412848,-1.166045 z"
   id="path4541"
   inkscape:connector-curvature="0"
   transform="matrix(1.2103368,0,0,1.2103368,-5.6454408,-5.6452304)" /></g>
<g
   id="g10">
</g>
<g
   id="g12">
</g>
<g
   id="g14">
</g>
<g
   id="g16">
</g>
<g
   id="g18">
</g>
<g
   id="g20">
</g>
<g
   id="g22">
</g>
<g
   id="g24">
</g>
<g
   id="g26">
</g>
<g
   id="g28">
</g>
<g
   id="g30">
</g>
<g
   id="g32">
</g>
<g
   id="g34">
</g>
<g
   id="g36">
</g>
<g
   id="g38">
</g>
</svg>